<svg xmlns="http://www.w3.org/2000/svg" viewBox="0 0 24 24" fill="white">
  <path d="M2 12.5c0-1.1.9-2 2-2s2 .9 2 2-.9 2-2 2-2-.9-2-2zm18 0c0 1.1.9 2 2 2s2-.9 2-2-.9-2-2-2-2 .9-2 2zM10 12l2-1.5L14 12l-2 1.5L10 12z"/>
  <path d="M8 9c0-1.1.9-2 2-2s2 .9 2 2-.9 2-2 2-2-.9-2-2z"/>
  <path d="M12.7 16.8c-1 0-1.9-.4-2.7-1l-3.3 2.7c.9.7 2 1.1 3.3 1.1 1.3 0 2.5-.5 3.5-1.3l-1.1-.9c.1-.2.3-.4.3-.6zm7.3-4.8c-1.5 0-2.9.8-3.7 2l-5.5-4.3c-.7-.5-1.6-.5-2.3 0L6.2 13c-.1.1-.2.1-.3.2-1.1-1.4-3.1-1.6-4.5-.5-1.4 1.1-1.6 3.1-.5 4.5.4.5 1 .9 1.6 1.1 0-.2.1-.3.3-.4L16 9.1c.7-.5 1.6-.5 2.3 0l.7.5c0-1.1.9-2 2-2s2 .9 2 2-.9 2-2 2c-.2 0-.4 0-.6-.1l-1.8-1.5c-.5.7-1.2 1.3-2.1 1.5l3.5 2.8c.2.2.3.4.5.5.5-1.2 1.5-2.1 2.7-2.3-.2-.8-.1-1.7.3-2.4.5-.7 1.2-1.2 2.1-1.4z"/>
</svg>